<svg xmlns="http://www.w3.org/2000/svg" version="1.1" xmlns:xlink="http://www.w3.org/1999/xlink" xmlns:svgjs="http://svgjs.dev/svgjs" width="1500" height="185" viewBox="0 0 1500 185"><g transform="matrix(1,0,0,1,-0.9090909090909918,0.9044545127995036)"><svg viewBox="0 0 396 49" data-background-color="#000000" preserveAspectRatio="xMidYMid meet" height="185" width="1500" xmlns="http://www.w3.org/2000/svg" xmlns:xlink="http://www.w3.org/1999/xlink"><g id="tight-bounds" transform="matrix(1,0,0,1,0.2400000000000091,-0.2395582223090571)"><svg viewBox="0 0 395.52 49.479116444618086" height="49.479116444618086" width="395.52"><g><svg viewBox="0 0 459.14872601713756 57.43899999999999" height="49.479116444618086" width="395.52"><g><svg viewBox="0 0 459.14872601713756 57.43899999999999" height="57.43899999999999" width="459.14872601713756"><g id="textblocktransform"><svg viewBox="0 0 459.14872601713756 57.43899999999999" height="57.43899999999999" width="459.14872601713756" id="textblock"><g><svg viewBox="0 0 459.14872601713756 57.43899999999999" height="57.43899999999999" width="459.14872601713756"><g><svg><g></g><g></g></svg></g><g><svg><g></g><g><svg></svg></g></svg></g><g id="text-0"><svg viewBox="0 0 459.14872601713756 57.43899999999999" height="57.43899999999999" width="459.14872601713756"><g><svg xmlns="http://www.w3.org/2000/svg" xmlns:xlink="http://www.w3.org/1999/xlink" version="1.1" x="0" y="0" viewBox="4.748882617665072 22.999999999999996 91.38704510153416 57.477000000000004" enable-background="new 0 0 100 100" xml:space="preserve" height="57.43899999999999" width="91.32662601713763" class="icon-cg-0" data-fill-palette-color="accent" id="cg-0"><g display="none" fill="#01ff70" data-fill-palette-color="accent"><path display="inline" fill="#01ff70" d="M95 25.581v19.542c0 1.424-0.717 2.581-1.597 2.581h-0.46c-0.881 0-1.596-1.157-1.596-2.581v-5.692h-1.34v3.855c0 0.998-0.81 1.808-1.808 1.808h-0.447c-0.998 0-1.809-0.81-1.809-1.808v-3.695h-2.536v0.646c0.014 0.613 0.014 1.182 0 1.706v5.578c0 0.505-0.858 0.96-2.242 1.293l0.038 26.301h10.451c0.839 0 1.519 0.684 1.519 1.521v2.318c0 0.842-0.68 1.523-1.519 1.523H7.346c-0.842 0-1.525-0.682-1.525-1.523v-2.318c0-0.838 0.684-1.521 1.525-1.521H53.6c0 0 0 0 5.957-18.053 3.914-12.902 0.081-17.358-24.01-16.814-13.76 0-17.377 9.972-17.377 12.832v4.004c0 0.986-0.8 1.785-1.785 1.785H14.64v5.08h-0.288v1.959h-0.577v-1.959h-0.288-2.57v-1.158h2.57v-3.922h-0.06-1.76c-0.988 0-1.788-0.799-1.788-1.785V26.833c0-0.989 0.8-1.787 1.788-1.787h4.717c0.985 0 26.805 9.478 45.529-0.481 0-0.013-0.099-0.936 0.692-0.936h6.947 4.795 1.13c0.005 0 0.007 0.004 0.012 0.004 0.06-0.001 0.114-0.004 0.173-0.004 5.574 0 7.746 0 7.746 1.842v5.8h1.543 0.993v-3.804c0-0.998 0.812-1.807 1.809-1.807H88.2c0.998 0 1.808 0.81 1.808 1.807v3.804h1.34v-5.69c0-1.426 0.715-2.581 1.596-2.581h0.46C94.283 23 95 24.155 95 25.581z" data-fill-palette-color="accent"></path></g><g display="none" fill="#01ff70" data-fill-palette-color="accent"><path display="inline" d="M96.11 56.706c-0.365-2.827-2.403-4.112-2.403-4.112-0.906-0.963-5.253-0.875-7.191-0.49-5.664 1.159-12.847-0.214-12.847-0.214-5.313-0.666-17.071-10.228-17.071-10.228-9.195-6.732-13.273-8.061-13.273-8.061-0.997-0.282-1.139 0.475-1.139 0.475l-2.161 18.43 0.277 0.125c0.911 0.248 1.697 0.831 2.235 1.618 0.017 0.025 0.035 0.049 0.051 0.074 0.02 0.029 0.037 0.06 0.057 0.088 0.367 0.584 0.599 1.271 0.645 2.007 0.009 0.109 0.014 0.22 0.014 0.331 0.006 2.054-1.354 3.771-3.162 4.174l-0.479 2.297c0.015 0.122 0.03 0.24 0.052 0.354 0.67 0.049 5.069 0.398 11.955 1.797 7.49 1.513 17.729 1.019 27.049-0.733 9.835-1.852 16.601-6.134 16.601-6.134C96.358 57.93 96.11 56.706 96.11 56.706zM43.975 44.068c-0.483 0-0.872-0.39-0.872-0.872 0-0.48 0.389-0.87 0.872-0.87 0.481 0 0.87 0.39 0.87 0.87C44.845 43.679 44.457 44.068 43.975 44.068zM45.688 58.204c-0.483 0-0.872-0.39-0.872-0.87 0-0.481 0.389-0.871 0.872-0.871 0.481 0 0.871 0.39 0.871 0.871C46.558 57.814 46.168 58.204 45.688 58.204zM66.542 63.588c-0.48 0-0.87-0.39-0.87-0.869 0-0.484 0.39-0.872 0.87-0.872 0.482 0 0.871 0.388 0.871 0.872C67.413 63.198 67.024 63.588 66.542 63.588zM36.671 53.498c-0.212 0.007-0.421 0.033-0.621 0.077l-0.132-0.474L28.47 42.71l-2.078-2.491-2.37 0.637c-5.759 2.006-14.187 2.2-16.785 2.116C6.43 42.946 6.24 43.678 6.24 43.678L5.78 45.32c0 0-2.192 9.089-0.184 14.911 0 0 0.156 0.835 0.597 2.099 0.439 1.266 1.764 4.926 7.209 3.976 0 0 4.741-0.48 12.21-1.684 0 0 6.459-0.887 11.218-0.98l0.604-3.451 0.241 0.044v-0.003c1.502-0.405 2.582-1.797 2.531-3.419C40.146 54.921 38.564 53.439 36.671 53.498zM25.064 44.468c-0.48 0.015-0.883-0.364-0.897-0.845-0.015-0.48 0.362-0.883 0.845-0.897 0.48-0.016 0.882 0.362 0.897 0.843C25.924 44.05 25.546 44.451 25.064 44.468zM33.288 58.349c-0.481 0.016-0.884-0.361-0.899-0.845-0.017-0.479 0.362-0.883 0.842-0.896 0.482-0.016 0.884 0.36 0.9 0.843C34.146 57.931 33.768 58.332 33.288 58.349z" fill="#01ff70" data-fill-palette-color="accent"></path></g><g display="none" fill="#01ff70" data-fill-palette-color="accent"><path display="inline" d="M95.318 58.505c0 0-6.766 4.282-16.601 6.134-9.32 1.752-19.559 2.246-27.049 0.733-6.886-1.398-11.285-1.748-11.955-1.797-0.021-0.114-0.037-0.232-0.052-0.354l0.479-2.297c1.809-0.402 3.168-2.12 3.162-4.174 0-0.111-0.005-0.222-0.014-0.331-0.045-0.736-0.277-1.423-0.645-2.007-0.02-0.028-0.037-0.059-0.057-0.088-0.016-0.025-0.034-0.049-0.051-0.074-0.538-0.787-1.324-1.37-2.235-1.618l-0.277-0.125 2.161-18.43c0 0 0.142-0.757 1.139-0.475 0 0 4.078 1.329 13.273 8.061 0 0 11.758 9.562 17.071 10.228 0 0 7.183 1.373 12.847 0.214 1.938-0.385 6.285-0.473 7.191 0.49 0 0 2.038 1.285 2.403 4.112C96.11 56.706 96.358 57.93 95.318 58.505zM36.671 53.498c-0.212 0.007-0.421 0.033-0.621 0.077l-0.132-0.474L28.47 42.71l-2.078-2.491-2.37 0.637c-5.759 2.006-14.187 2.2-16.785 2.116C6.43 42.946 6.24 43.678 6.24 43.678L5.78 45.32c0 0-2.192 9.089-0.184 14.911 0 0 0.156 0.835 0.597 2.099 0.439 1.266 1.764 4.926 7.209 3.976 0 0 4.741-0.48 12.21-1.684 0 0 6.459-0.887 11.218-0.98l0.767-3.451L38 60.234v-0.003c1-0.405 2.419-1.797 2.369-3.419C40.309 54.921 38.564 53.439 36.671 53.498z" fill="#01ff70" data-fill-palette-color="accent"></path></g><g display="none" fill="#01ff70" data-fill-palette-color="accent"><path display="inline" d="M85.617 55.809c-0.906-7.248-8.412-6.544-8.412-6.544s-3.605-0.019-7.364 2.488c-3.757 2.505-9.827 7.803-16.448 3.072 0 0-1.245-0.79-0.896-2.785 0.287-1.652 5.07-5.802 14.175-3.729 0 0 9.289 2.911 13.597-0.837L90.56 36.375c0 0 1.646-1.463 2.707-1.523 0.181-0.009 0.345 0.021 0.482 0.105-0.078-0.048-0.137-0.084-0.137-0.084s0.812 0.471 1.024-0.337c0.211-0.811-1.58-2.622-4.817 0.289l-8.908 8.959c0 0-3.022 4.066-8.168 2.985-4.898-1.027-14.304-5.173-21.54 2.59l0.05-0.176-31.527-6.392c0 0-10.122-1.771-14.48 1.372l38.083 8.476L5.991 58.757c4.054 3.523 14.294 2.678 14.294 2.678l30.461-4.852c0.418 0.424 0.757 0.67 0.757 0.67 1.311 1.714 6.669 3.237 6.669 3.237 7.169 9.754 18.896 5.234 18.896 5.234S86.521 63.055 85.617 55.809zM46.999 54.21c-0.612-0.526-0.681-1.448-0.155-2.059 0.526-0.61 1.448-0.68 2.059-0.154 0.61 0.526 0.68 1.449 0.155 2.061C48.532 54.668 47.609 54.736 46.999 54.21zM78.798 62.779c-10.214 4.319-15.845-0.448-15.845-0.448-3.312-2.249-2.843-3.229-0.893-3.575 1.946-0.345 5.057-1.645 7.593-3.659 2.536-2.013 3.933-2.521 3.933-2.521 7.125-3.228 9.156 2.074 9.156 2.074C84.712 59.499 78.798 62.779 78.798 62.779z" fill="#01ff70" data-fill-palette-color="accent"></path></g><g display="none" fill="#01ff70" data-fill-palette-color="accent"><path display="inline" d="M76.043 42.034v13.901c0 0-2.647-1.528-6.221-1.652v-2.354h-1.288V54.3c-1.264 0.084-2.607 0.374-3.973 0.963v-3.981h-1.289v4.559c-1.741 0.802-3.105 0.988-4.021 0.946 0.079-0.262 0.146-0.528 0.146-0.819V44.034c0-0.643-0.227-1.211-0.599-1.725 1.384 0.122 3.122 0.033 5.015-0.708C68.551 39.742 75.1 40.732 76.043 42.034zM57.968 43.371c0.091 0.21 0.141 0.432 0.141 0.663v11.933c0 0.21-0.052 0.408-0.127 0.602-0.465 1.192-2.311 2.063-4.759 2.689v-3.18h-1.287v3.476c-1.473 0.306-3.094 0.537-4.733 0.71v-5.314h-1.289v5.438c-2.004 0.173-3.976 0.261-5.673 0.285v-3.465h-1.289v3.474c-1.641-0.005-3.617-0.071-5.672-0.223v-5.51h-1.288v5.402c-1.889-0.174-3.778-0.428-5.484-0.773v-3.5h-1.288v3.208c-2.909-0.729-5.006-1.79-5.006-3.319V44.034c0-3.731 12.395-4.716 18.947-4.716 4.93 0 13.164 0.559 16.94 2.424 0.001 0 0.001 0 0.001 0 0.025 0.012 0.045 0.027 0.067 0.039 0.282 0.143 0.544 0.29 0.771 0.448 0.017 0.011 0.028 0.026 0.046 0.038 0.223 0.159 0.424 0.327 0.585 0.504 0.038 0.041 0.052 0.088 0.087 0.131C57.78 43.055 57.896 43.207 57.968 43.371zM34.308 44.034c0 0.399 2.173 0.725 4.852 0.725s4.852-0.325 4.852-0.725-2.172-0.725-4.852-0.725S34.308 43.635 34.308 44.034zM56.149 46.235l-0.402-0.759c-2.671 1.416-9.338 2.369-16.587 2.369-7.224 0-13.689-0.907-16.474-2.312L22.3 46.303c2.896 1.46 9.514 2.402 16.86 2.402C46.652 48.705 53.321 47.735 56.149 46.235zM77.253 42.518v13.854l2.534 1.683V44.2L77.253 42.518z" fill="#01ff70" data-fill-palette-color="accent"></path></g><g fill="#01ff70" data-fill-palette-color="accent"><g fill="#01ff70" data-fill-palette-color="accent"><path fill="#01ff70" d="M37.994 71.428c0 0.829 0.675 1.505 1.505 1.505h4.486L61.13 58.026V47.605L37.994 67.719V71.428z" data-fill-palette-color="accent"></path><path fill="#01ff70" d="M61.13 28.801c0-0.83-0.681-1.506-1.511-1.506h-1.531L37.994 44.768v9.572L61.13 34.226V28.801z" data-fill-palette-color="accent"></path><path fill="#01ff70" d="M59.619 72.933c0.83 0 1.511-0.676 1.511-1.505v-2.267l-4.339 3.771H59.619z" data-fill-palette-color="accent"></path><polygon fill="#01ff70" points="45.26,76.176 53.13,76.176 53.13,72.933 55.084,72.933 61.13,67.679 61.13,59.513 45.26,73.31       " data-fill-palette-color="accent"></polygon><path fill="#01ff70" d="M39.499 27.295c-0.831 0-1.505 0.676-1.505 1.506v3.062l5.254-4.568H39.499z" data-fill-palette-color="accent"></path><polygon fill="#01ff70" points="53.13,27.295 53.13,23.824 45.26,23.824 45.26,27.295 44.953,27.295 37.994,33.346 37.994,43.282     56.381,27.295   " data-fill-palette-color="accent"></polygon><path fill="#01ff70" d="M76.944 27.388c-0.021-0.023-0.057-0.033-0.084-0.058-0.034-0.051-0.062-0.111-0.105-0.153-1.604-1.563-4.721 1.039-4.721 1.039l-0.719 0.512-1.254 1.092c-0.054 0.045-0.107 0.078-0.159 0.124-0.044 0.04-0.081 0.08-0.129 0.123l-2.355 2.052-6.288 6.035v-2.441L37.994 55.824v4.637L22.759 75.228l15.234-12.354v3.36L61.13 46.12v-1.983l10.394-8.406 0.91-0.862c0.346-0.261 0.697-0.542 1.039-0.842C76.377 31.485 77.931 28.514 76.944 27.388zM73.61 31.845c-1.396 1.221-2.879 1.812-3.314 1.315-0.43-0.495 0.347-1.884 1.747-3.107 1.394-1.223 2.877-1.81 3.312-1.316C75.785 29.231 75.008 30.624 73.61 31.845z" data-fill-palette-color="accent"></path></g></g></svg></g><g transform="matrix(1,0,0,1,104.88762601713762,0)"><svg width="354.26109999999994" viewBox="1.25 -35 218.93 35.5" height="57.43899999999999" data-palette-color="url(#b7575e20-3ba5-4b83-ac4b-f327226a8916)"></svg></g></svg></g></svg></g></svg></g></svg></g></svg></g><defs></defs><mask id="13282d66-5d86-4a74-90b4-e35b475b5a5c"><g id="SvgjsG1904"><svg viewBox="0 0 395.52 49.479116444618086" height="49.479116444618086" width="395.52"><g><svg viewBox="0 0 459.14872601713756 57.43899999999999" height="49.479116444618086" width="395.52"><g><svg viewBox="0 0 459.14872601713756 57.43899999999999" height="57.43899999999999" width="459.14872601713756"><g id="SvgjsG1903"><svg viewBox="0 0 459.14872601713756 57.43899999999999" height="57.43899999999999" width="459.14872601713756" id="SvgjsSvg1902"><g><svg viewBox="0 0 459.14872601713756 57.43899999999999" height="57.43899999999999" width="459.14872601713756"><g><svg><g></g><g></g></svg></g><g><svg><g></g><g><svg></svg></g></svg></g><g id="SvgjsG1901"><svg viewBox="0 0 459.14872601713756 57.43899999999999" height="57.43899999999999" width="459.14872601713756"><g><svg xmlns="http://www.w3.org/2000/svg" xmlns:xlink="http://www.w3.org/1999/xlink" version="1.1" x="0" y="0" viewBox="4.748882617665072 22.999999999999996 91.38704510153416 57.477000000000004" enable-background="new 0 0 100 100" xml:space="preserve" height="57.43899999999999" width="91.32662601713763" class="icon-cg-0" data-fill-palette-color="accent" id="SvgjsSvg1900"><g display="none" fill="black"><path display="inline" fill="black" d="M95 25.581v19.542c0 1.424-0.717 2.581-1.597 2.581h-0.46c-0.881 0-1.596-1.157-1.596-2.581v-5.692h-1.34v3.855c0 0.998-0.81 1.808-1.808 1.808h-0.447c-0.998 0-1.809-0.81-1.809-1.808v-3.695h-2.536v0.646c0.014 0.613 0.014 1.182 0 1.706v5.578c0 0.505-0.858 0.96-2.242 1.293l0.038 26.301h10.451c0.839 0 1.519 0.684 1.519 1.521v2.318c0 0.842-0.68 1.523-1.519 1.523H7.346c-0.842 0-1.525-0.682-1.525-1.523v-2.318c0-0.838 0.684-1.521 1.525-1.521H53.6c0 0 0 0 5.957-18.053 3.914-12.902 0.081-17.358-24.01-16.814-13.76 0-17.377 9.972-17.377 12.832v4.004c0 0.986-0.8 1.785-1.785 1.785H14.64v5.08h-0.288v1.959h-0.577v-1.959h-0.288-2.57v-1.158h2.57v-3.922h-0.06-1.76c-0.988 0-1.788-0.799-1.788-1.785V26.833c0-0.989 0.8-1.787 1.788-1.787h4.717c0.985 0 26.805 9.478 45.529-0.481 0-0.013-0.099-0.936 0.692-0.936h6.947 4.795 1.13c0.005 0 0.007 0.004 0.012 0.004 0.06-0.001 0.114-0.004 0.173-0.004 5.574 0 7.746 0 7.746 1.842v5.8h1.543 0.993v-3.804c0-0.998 0.812-1.807 1.809-1.807H88.2c0.998 0 1.808 0.81 1.808 1.807v3.804h1.34v-5.69c0-1.426 0.715-2.581 1.596-2.581h0.46C94.283 23 95 24.155 95 25.581z"></path></g><g display="none" fill="black"><path display="inline" d="M96.11 56.706c-0.365-2.827-2.403-4.112-2.403-4.112-0.906-0.963-5.253-0.875-7.191-0.49-5.664 1.159-12.847-0.214-12.847-0.214-5.313-0.666-17.071-10.228-17.071-10.228-9.195-6.732-13.273-8.061-13.273-8.061-0.997-0.282-1.139 0.475-1.139 0.475l-2.161 18.43 0.277 0.125c0.911 0.248 1.697 0.831 2.235 1.618 0.017 0.025 0.035 0.049 0.051 0.074 0.02 0.029 0.037 0.06 0.057 0.088 0.367 0.584 0.599 1.271 0.645 2.007 0.009 0.109 0.014 0.22 0.014 0.331 0.006 2.054-1.354 3.771-3.162 4.174l-0.479 2.297c0.015 0.122 0.03 0.24 0.052 0.354 0.67 0.049 5.069 0.398 11.955 1.797 7.49 1.513 17.729 1.019 27.049-0.733 9.835-1.852 16.601-6.134 16.601-6.134C96.358 57.93 96.11 56.706 96.11 56.706zM43.975 44.068c-0.483 0-0.872-0.39-0.872-0.872 0-0.48 0.389-0.87 0.872-0.87 0.481 0 0.87 0.39 0.87 0.87C44.845 43.679 44.457 44.068 43.975 44.068zM45.688 58.204c-0.483 0-0.872-0.39-0.872-0.87 0-0.481 0.389-0.871 0.872-0.871 0.481 0 0.871 0.39 0.871 0.871C46.558 57.814 46.168 58.204 45.688 58.204zM66.542 63.588c-0.48 0-0.87-0.39-0.87-0.869 0-0.484 0.39-0.872 0.87-0.872 0.482 0 0.871 0.388 0.871 0.872C67.413 63.198 67.024 63.588 66.542 63.588zM36.671 53.498c-0.212 0.007-0.421 0.033-0.621 0.077l-0.132-0.474L28.47 42.71l-2.078-2.491-2.37 0.637c-5.759 2.006-14.187 2.2-16.785 2.116C6.43 42.946 6.24 43.678 6.24 43.678L5.78 45.32c0 0-2.192 9.089-0.184 14.911 0 0 0.156 0.835 0.597 2.099 0.439 1.266 1.764 4.926 7.209 3.976 0 0 4.741-0.48 12.21-1.684 0 0 6.459-0.887 11.218-0.98l0.604-3.451 0.241 0.044v-0.003c1.502-0.405 2.582-1.797 2.531-3.419C40.146 54.921 38.564 53.439 36.671 53.498zM25.064 44.468c-0.48 0.015-0.883-0.364-0.897-0.845-0.015-0.48 0.362-0.883 0.845-0.897 0.48-0.016 0.882 0.362 0.897 0.843C25.924 44.05 25.546 44.451 25.064 44.468zM33.288 58.349c-0.481 0.016-0.884-0.361-0.899-0.845-0.017-0.479 0.362-0.883 0.842-0.896 0.482-0.016 0.884 0.36 0.9 0.843C34.146 57.931 33.768 58.332 33.288 58.349z" fill="black"></path></g><g display="none" fill="black"><path display="inline" d="M95.318 58.505c0 0-6.766 4.282-16.601 6.134-9.32 1.752-19.559 2.246-27.049 0.733-6.886-1.398-11.285-1.748-11.955-1.797-0.021-0.114-0.037-0.232-0.052-0.354l0.479-2.297c1.809-0.402 3.168-2.12 3.162-4.174 0-0.111-0.005-0.222-0.014-0.331-0.045-0.736-0.277-1.423-0.645-2.007-0.02-0.028-0.037-0.059-0.057-0.088-0.016-0.025-0.034-0.049-0.051-0.074-0.538-0.787-1.324-1.37-2.235-1.618l-0.277-0.125 2.161-18.43c0 0 0.142-0.757 1.139-0.475 0 0 4.078 1.329 13.273 8.061 0 0 11.758 9.562 17.071 10.228 0 0 7.183 1.373 12.847 0.214 1.938-0.385 6.285-0.473 7.191 0.49 0 0 2.038 1.285 2.403 4.112C96.11 56.706 96.358 57.93 95.318 58.505zM36.671 53.498c-0.212 0.007-0.421 0.033-0.621 0.077l-0.132-0.474L28.47 42.71l-2.078-2.491-2.37 0.637c-5.759 2.006-14.187 2.2-16.785 2.116C6.43 42.946 6.24 43.678 6.24 43.678L5.78 45.32c0 0-2.192 9.089-0.184 14.911 0 0 0.156 0.835 0.597 2.099 0.439 1.266 1.764 4.926 7.209 3.976 0 0 4.741-0.48 12.21-1.684 0 0 6.459-0.887 11.218-0.98l0.767-3.451L38 60.234v-0.003c1-0.405 2.419-1.797 2.369-3.419C40.309 54.921 38.564 53.439 36.671 53.498z" fill="black"></path></g><g display="none" fill="black"><path display="inline" d="M85.617 55.809c-0.906-7.248-8.412-6.544-8.412-6.544s-3.605-0.019-7.364 2.488c-3.757 2.505-9.827 7.803-16.448 3.072 0 0-1.245-0.79-0.896-2.785 0.287-1.652 5.07-5.802 14.175-3.729 0 0 9.289 2.911 13.597-0.837L90.56 36.375c0 0 1.646-1.463 2.707-1.523 0.181-0.009 0.345 0.021 0.482 0.105-0.078-0.048-0.137-0.084-0.137-0.084s0.812 0.471 1.024-0.337c0.211-0.811-1.58-2.622-4.817 0.289l-8.908 8.959c0 0-3.022 4.066-8.168 2.985-4.898-1.027-14.304-5.173-21.54 2.59l0.05-0.176-31.527-6.392c0 0-10.122-1.771-14.48 1.372l38.083 8.476L5.991 58.757c4.054 3.523 14.294 2.678 14.294 2.678l30.461-4.852c0.418 0.424 0.757 0.67 0.757 0.67 1.311 1.714 6.669 3.237 6.669 3.237 7.169 9.754 18.896 5.234 18.896 5.234S86.521 63.055 85.617 55.809zM46.999 54.21c-0.612-0.526-0.681-1.448-0.155-2.059 0.526-0.61 1.448-0.68 2.059-0.154 0.61 0.526 0.68 1.449 0.155 2.061C48.532 54.668 47.609 54.736 46.999 54.21zM78.798 62.779c-10.214 4.319-15.845-0.448-15.845-0.448-3.312-2.249-2.843-3.229-0.893-3.575 1.946-0.345 5.057-1.645 7.593-3.659 2.536-2.013 3.933-2.521 3.933-2.521 7.125-3.228 9.156 2.074 9.156 2.074C84.712 59.499 78.798 62.779 78.798 62.779z" fill="black"></path></g><g display="none" fill="black"><path display="inline" d="M76.043 42.034v13.901c0 0-2.647-1.528-6.221-1.652v-2.354h-1.288V54.3c-1.264 0.084-2.607 0.374-3.973 0.963v-3.981h-1.289v4.559c-1.741 0.802-3.105 0.988-4.021 0.946 0.079-0.262 0.146-0.528 0.146-0.819V44.034c0-0.643-0.227-1.211-0.599-1.725 1.384 0.122 3.122 0.033 5.015-0.708C68.551 39.742 75.1 40.732 76.043 42.034zM57.968 43.371c0.091 0.21 0.141 0.432 0.141 0.663v11.933c0 0.21-0.052 0.408-0.127 0.602-0.465 1.192-2.311 2.063-4.759 2.689v-3.18h-1.287v3.476c-1.473 0.306-3.094 0.537-4.733 0.71v-5.314h-1.289v5.438c-2.004 0.173-3.976 0.261-5.673 0.285v-3.465h-1.289v3.474c-1.641-0.005-3.617-0.071-5.672-0.223v-5.51h-1.288v5.402c-1.889-0.174-3.778-0.428-5.484-0.773v-3.5h-1.288v3.208c-2.909-0.729-5.006-1.79-5.006-3.319V44.034c0-3.731 12.395-4.716 18.947-4.716 4.93 0 13.164 0.559 16.94 2.424 0.001 0 0.001 0 0.001 0 0.025 0.012 0.045 0.027 0.067 0.039 0.282 0.143 0.544 0.29 0.771 0.448 0.017 0.011 0.028 0.026 0.046 0.038 0.223 0.159 0.424 0.327 0.585 0.504 0.038 0.041 0.052 0.088 0.087 0.131C57.78 43.055 57.896 43.207 57.968 43.371zM34.308 44.034c0 0.399 2.173 0.725 4.852 0.725s4.852-0.325 4.852-0.725-2.172-0.725-4.852-0.725S34.308 43.635 34.308 44.034zM56.149 46.235l-0.402-0.759c-2.671 1.416-9.338 2.369-16.587 2.369-7.224 0-13.689-0.907-16.474-2.312L22.3 46.303c2.896 1.46 9.514 2.402 16.86 2.402C46.652 48.705 53.321 47.735 56.149 46.235zM77.253 42.518v13.854l2.534 1.683V44.2L77.253 42.518z" fill="black"></path></g><g fill="black"><g fill="black"><path fill="black" d="M37.994 71.428c0 0.829 0.675 1.505 1.505 1.505h4.486L61.13 58.026V47.605L37.994 67.719V71.428z"></path><path fill="black" d="M61.13 28.801c0-0.83-0.681-1.506-1.511-1.506h-1.531L37.994 44.768v9.572L61.13 34.226V28.801z"></path><path fill="black" d="M59.619 72.933c0.83 0 1.511-0.676 1.511-1.505v-2.267l-4.339 3.771H59.619z"></path><polygon fill="black" points="45.26,76.176 53.13,76.176 53.13,72.933 55.084,72.933 61.13,67.679 61.13,59.513 45.26,73.31       "></polygon><path fill="black" d="M39.499 27.295c-0.831 0-1.505 0.676-1.505 1.506v3.062l5.254-4.568H39.499z"></path><polygon fill="black" points="53.13,27.295 53.13,23.824 45.26,23.824 45.26,27.295 44.953,27.295 37.994,33.346 37.994,43.282     56.381,27.295   "></polygon><path fill="black" d="M76.944 27.388c-0.021-0.023-0.057-0.033-0.084-0.058-0.034-0.051-0.062-0.111-0.105-0.153-1.604-1.563-4.721 1.039-4.721 1.039l-0.719 0.512-1.254 1.092c-0.054 0.045-0.107 0.078-0.159 0.124-0.044 0.04-0.081 0.08-0.129 0.123l-2.355 2.052-6.288 6.035v-2.441L37.994 55.824v4.637L22.759 75.228l15.234-12.354v3.36L61.13 46.12v-1.983l10.394-8.406 0.91-0.862c0.346-0.261 0.697-0.542 1.039-0.842C76.377 31.485 77.931 28.514 76.944 27.388zM73.61 31.845c-1.396 1.221-2.879 1.812-3.314 1.315-0.43-0.495 0.347-1.884 1.747-3.107 1.394-1.223 2.877-1.81 3.312-1.316C75.785 29.231 75.008 30.624 73.61 31.845z"></path></g></g></svg></g><g transform="matrix(1,0,0,1,104.88762601713762,0)"><svg width="354.26109999999994" viewBox="1.25 -35 218.93 35.5" height="57.43899999999999" data-palette-color="url(#b7575e20-3ba5-4b83-ac4b-f327226a8916)"><path d="M9.9-30.6L1.25-30.6 1.25-35 23.25-35 23.25-30.6 14.6-30.6 14.6 0 9.9 0 9.9-30.6ZM27.5-35L31.9-35 31.9-24 36.15-24Q41.7-24 44.1-22.35L44.1-22.35Q46.25-20.9 46.82-18.88 47.4-16.85 47.4-13.55L47.4-13.55 47.4 0 43 0 43-13.5Q43-14.4 42.95-15.03 42.9-15.65 42.6-16.63 42.3-17.6 41.75-18.23 41.2-18.85 40.15-19.33 39.1-19.8 37.6-19.8L37.6-19.8 31.9-19.8 31.9 0 27.5 0 27.5-35ZM57.05 0L52.65 0 52.65-13.65Q52.65-19.4 54.8-21.6L54.8-21.6Q55.85-22.7 57.35-23.25 58.85-23.8 59.97-23.9 61.1-24 63.05-24L63.05-24 67.45-24 67.45-19.8 62.15-19.8Q61.15-19.8 60.6-19.75 60.05-19.7 59.3-19.4 58.55-19.1 58-18.45L58-18.45Q57.05-17.25 57.05-13.65L57.05-13.65 57.05 0ZM82.44-24.5L82.44-24.5Q90.94-24.15 90.94-17.45L90.94-17.45Q90.94-9.1 79.99-9.1L79.99-9.1 77.94-9.1 77.94-12.95 80.34-12.95Q83.69-12.95 84.99-13.98 86.29-15 86.29-17.4L86.29-17.4Q86.29-18.95 85.14-19.73 83.99-20.5 82.19-20.5L82.19-20.5Q78.64-20.5 76.62-18 74.59-15.5 74.59-12L74.59-12Q74.59-8.3 76.77-6 78.94-3.7 82.44-3.7L82.44-3.7Q85.59-3.7 87.59-5.25L87.59-5.25 90.59-2.3Q87.14 0.5 82.44 0.5L82.44 0.5Q76.74 0.5 73.34-2.85 69.94-6.2 69.94-11.5L69.94-11.5Q69.94-17.4 73.29-21.05 76.64-24.7 82.44-24.5ZM109.29-14.1L109.29-14.1 109.29-9.6Q107.39-11.05 104.64-11.05L104.64-11.05Q102.29-11.05 100.99-10.13 99.69-9.2 99.69-7.5L99.69-7.5Q99.69-4.2 104.59-4.2L104.59-4.2 111.19-4.2 111.19-13.75Q111.19-19.8 105.29-19.8L105.29-19.8 97.29-19.8 97.29-24 105.54-24Q110.39-24 112.99-21.6 115.59-19.2 115.59-14.7L115.59-14.7 115.59 0 104.44 0Q100.19 0 97.69-1.9 95.19-3.8 95.19-7.45 95.19-11.1 97.84-13 100.49-14.9 104.49-14.9L104.49-14.9Q106.74-14.9 109.29-14.1ZM139.84-4.2L139.84-35 144.34-35 144.34 0 132.59 0Q127.14 0 123.74-3.48 120.34-6.95 120.34-12.25L120.34-12.25Q120.34-17.45 123.86-20.98 127.39-24.5 132.24-24.5L132.24-24.5Q135.34-24.5 138.04-23L138.04-23 138.04-18.5Q135.54-20.3 132.24-20.3L132.24-20.3Q129.24-20.3 127.16-18.07 125.09-15.85 125.09-12.25L125.09-12.25Q125.09-8.6 127.06-6.4 129.04-4.2 132.59-4.2L132.59-4.2 139.84-4.2ZM155.54-30.6L155.54 0 150.84 0 150.84-35 163.19-35Q169.39-35 172.44-32.23 175.49-29.45 175.49-23.5L175.49-23.5 175.49 0 170.79 0 170.79-24.15Q170.79-27.55 168.71-29.08 166.64-30.6 163.24-30.6L163.24-30.6 155.54-30.6ZM193.48-24.5L193.48-24.5Q201.98-24.15 201.98-17.45L201.98-17.45Q201.98-9.1 191.03-9.1L191.03-9.1 188.98-9.1 188.98-12.95 191.38-12.95Q194.73-12.95 196.03-13.98 197.33-15 197.33-17.4L197.33-17.4Q197.33-18.95 196.18-19.73 195.03-20.5 193.23-20.5L193.23-20.5Q189.68-20.5 187.66-18 185.63-15.5 185.63-12L185.63-12Q185.63-8.3 187.81-6 189.98-3.7 193.48-3.7L193.48-3.7Q196.63-3.7 198.63-5.25L198.63-5.25 201.63-2.3Q198.18 0.5 193.48 0.5L193.48 0.5Q187.78 0.5 184.38-2.85 180.98-6.2 180.98-11.5L180.98-11.5Q180.98-17.4 184.33-21.05 187.68-24.7 193.48-24.5ZM208.93-19.8L204.48-19.8 213.43-28.75 213.43-24 220.18-24 220.18-19.8 213.43-19.8 213.43-9.5Q213.43-7.75 214.01-6.6 214.58-5.45 215.68-4.98 216.78-4.5 217.76-4.35 218.73-4.2 220.18-4.2L220.18-4.2 220.18 0Q214.43 0 211.68-2.2 208.93-4.4 208.93-9.5L208.93-9.5 208.93-19.8Z" opacity="1" transform="matrix(1,0,0,1,0,0)" fill="white" class="wordmark-text-0"></path></svg></g></svg></g></svg></g></svg></g></svg></g></svg></g><defs><mask></mask></defs></svg><rect width="395.52" height="49.479116444618086" fill="black" stroke="none" visibility="hidden"></rect></g></mask><linearGradient x1="0" x2="1" y1="0.578" y2="0.595" id="b7575e20-3ba5-4b83-ac4b-f327226a8916"><stop stop-color="#6ee2f5" offset="0"></stop><stop stop-color="#6454f0" offset="1"></stop></linearGradient><rect width="395.52" height="49.4791164446181" fill="url(#b7575e20-3ba5-4b83-ac4b-f327226a8916)" mask="url(#13282d66-5d86-4a74-90b4-e35b475b5a5c)" data-fill-palette-color="primary"></rect></svg><rect width="395.52" height="49.479116444618086" fill="none" stroke="none" visibility="hidden"></rect></g></svg></g></svg>